<svg width="22" height="13" viewBox="0 0 22 13" fill="none" xmlns="http://www.w3.org/2000/svg">
<path d="M9.17541 8.28767C8.93319 8.03657 8.93319 7.6298 9.17541 7.37869L16.1394 0.18827H16.1404C16.3855 -0.0477605 16.7678 -0.0417336 17.0042 0.203336C17.2415 0.448404 17.2483 0.843133 17.0197 1.09624L10.0568 8.28667V8.28767C9.94003 8.4082 9.78146 8.47549 9.61611 8.47549C9.45074 8.47549 9.29218 8.4082 9.17546 8.28767H9.17541ZM21.8174 0.188321C21.5752 -0.0627738 21.1812 -0.0627738 20.9381 0.188321L10.0402 11.4444L5.86233 7.13653C5.61915 6.88845 5.22809 6.89046 4.98589 7.13955C4.74369 7.38863 4.74173 7.79341 4.982 8.04449L6.7563 9.87648L5.23782 11.4443L1.06566 7.13651C0.821496 6.88441 0.42656 6.88441 0.182391 7.13651C-0.060797 7.38861 -0.060797 7.79639 0.182391 8.0485L4.79433 12.8112H4.79531C4.91204 12.9317 5.0706 13 5.23498 13C5.40035 13 5.55892 12.9317 5.67563 12.8112L7.63379 10.7883L9.59195 12.8112C9.70868 12.9317 9.86725 13 10.0326 13C10.198 13 10.3556 12.9317 10.4723 12.8112L21.8176 1.09617C22.0608 0.845078 22.0608 0.4383 21.8176 0.188223L21.8174 0.188321Z" fill="#828282"/>
</svg>
