<svg width="16" height="17" viewBox="0 0 16 17" fill="none" xmlns="http://www.w3.org/2000/svg">
<path d="M2.34811 15.5242C0.391746 13.6402 0.428208 10.602 2.39451 8.72481L9.41773 2.01979C10.9015 0.603167 13.3134 0.603042 14.7973 2.01979C16.2669 3.42273 16.2686 5.68632 14.7973 7.09091L8.67516 12.93C7.67555 13.8843 6.04236 13.871 5.05969 12.8988C4.11298 11.9623 4.14335 10.4778 5.10831 9.55656L9.92113 4.96797C10.1281 4.77066 10.4673 4.76729 10.6787 4.96044L11.4441 5.65978C11.6556 5.85297 11.6592 6.16953 11.4522 6.36685L6.63988 10.955C6.47475 11.1127 6.46457 11.3746 6.61818 11.5266C6.76457 11.6714 6.99469 11.6738 7.14345 11.5318L13.2656 5.69269C13.9223 5.06575 13.9223 4.04504 13.2653 3.41776C12.6228 2.80441 11.5926 2.8041 10.9498 3.41776L3.92659 10.1227C2.76265 11.234 2.7447 13.0327 3.88671 14.1325C5.02544 15.2292 6.86612 15.2306 8.00696 14.1415L13.7679 8.6415C13.9747 8.44403 14.3139 8.44047 14.5255 8.6335L15.2914 9.33237C15.503 9.5254 15.5069 9.84197 15.3 10.0394L9.53907 15.5394C7.54433 17.4437 4.31776 17.4211 2.34811 15.5242Z" fill="#6671AB"/>
</svg>
