<svg width="17" height="20" viewBox="0 0 17 20" fill="none" xmlns="http://www.w3.org/2000/svg">
<path d="M16.2916 2.22221H11.8442L11.297 0.506475C11.2005 0.203709 10.9304 0 10.625 0H6.37497C6.06949 0 5.79944 0.203704 5.70383 0.506475L5.15575 2.22221H0.708332C0.31697 2.22221 0 2.55369 0 2.96295V7.40738C0 7.81665 0.31697 8.14812 0.708332 8.14812H1.4999L2.83954 19.3509C2.88293 19.7213 3.18484 20 3.54168 20H13.4583C13.8152 20 14.1171 19.7213 14.1614 19.3509L15.5001 8.14812H16.2917C16.683 8.14812 17 7.81665 17 7.40738V2.96295C17 2.55369 16.683 2.22221 16.2917 2.22221H16.2916ZM6.88585 1.48148H10.1149L10.3505 2.22221H6.64946L6.88585 1.48148ZM12.8331 18.5185H4.16676L2.92717 8.14812H14.0719L12.8331 18.5185ZM15.5833 6.66664H1.41662V3.70369H15.5833V6.66664ZM4.95828 14.8148V11.1111C4.95828 10.7018 5.27525 10.3703 5.66661 10.3703C6.05798 10.3703 6.37495 10.7018 6.37495 11.1111V14.8148C6.37495 15.224 6.05798 15.5555 5.66661 15.5555C5.27525 15.5555 4.95828 15.224 4.95828 14.8148ZM10.6249 14.8148V11.1111C10.6249 10.7018 10.9419 10.3703 11.3333 10.3703C11.7246 10.3703 12.0416 10.7018 12.0416 11.1111V14.8148C12.0416 15.224 11.7246 15.5555 11.3333 15.5555C10.9419 15.5555 10.6249 15.224 10.6249 14.8148ZM7.79161 14.8148V11.1111C7.79161 10.7018 8.10858 10.3703 8.49994 10.3703C8.89131 10.3703 9.20828 10.7018 9.20828 11.1111V14.8148C9.20828 15.224 8.89131 15.5555 8.49994 15.5555C8.10858 15.5555 7.79161 15.224 7.79161 14.8148Z" fill="#828282"/>
</svg>
