<svg xmlns="http://www.w3.org/2000/svg" viewBox="271.686 179 59.33 51.615">
  <defs>
    <style>
      .cls-1 {
        fill: #999;
      }
    </style>
  </defs>
  <g id="hide" transform="translate(268 177)">
    <path id="Path_3" data-name="Path 3" class="cls-1" d="M27.194,35.607,40.63,23.918a7.754,7.754,0,0,1,1.1,3.89c-.006,4.832-4.507,8.747-10.061,8.752A11.151,11.151,0,0,1,27.194,35.607Zm-5.59-7.8a7.753,7.753,0,0,0,1.1,3.89L36.136,20.008a11.15,11.15,0,0,0-4.471-.953c-5.554.005-10.054,3.921-10.061,8.752ZM49.1,16.551l-6.16,5.36a10.345,10.345,0,0,1-1.949,14.008,14.646,14.646,0,0,1-16.1,1.7l-4.62,4.019A38.477,38.477,0,0,0,32.106,43.5c11.81.039,22.78-5.307,28.911-14.087a1.637,1.637,0,0,0,.056-1.842A31.729,31.729,0,0,0,49.1,16.551ZM14.232,39.063l6.16-5.36A10.345,10.345,0,0,1,22.343,19.7a14.646,14.646,0,0,1,16.1-1.7l4.619-4.019C27.866,9.044,10.78,14.169,2.313,26.205a1.637,1.637,0,0,0-.056,1.843A31.729,31.729,0,0,0,14.232,39.063ZM60.709,2.54a2.347,2.347,0,0,0-3,0L2.621,50.468a1.679,1.679,0,0,0,0,2.607,2.349,2.349,0,0,0,3,0L60.709,5.147a1.678,1.678,0,0,0,0-2.607Z" transform="translate(1.687 0)"/>
  </g>
</svg>
