<svg width="64" height="69" viewBox="0 0 64 69" fill="none" xmlns="http://www.w3.org/2000/svg">
<path d="M25.6459 27.9345L25.646 27.934C25.9219 27.1106 26.5932 26.508 27.3817 26.1264C28.1737 25.7432 29.1297 25.5581 30.0729 25.5933C31.9333 25.6628 33.9256 26.6194 34.3854 28.8621C34.8578 30.1588 34.7663 31.7756 34.4949 33.3166C34.233 34.8042 33.7872 36.3011 33.4314 37.496C33.4299 37.501 33.4284 37.5061 33.4269 37.5111C34.8841 40.5754 36.9132 42.6653 39.9395 44.2053C41.5194 44.0407 43.8973 43.8394 46.1788 43.8934C47.3551 43.9212 48.5199 44.0172 49.5437 44.2262C50.5575 44.4331 51.4844 44.7608 52.1414 45.2868L52.1439 45.2888C53.2583 46.1926 53.6874 47.8661 53.1819 49.3032C52.6561 50.798 51.1662 51.9586 48.6215 51.9586C45.8127 51.9586 41.6738 50.9331 38.1286 49.3755C34.9179 49.8224 31.3659 50.8065 27.9173 51.7619C27.1522 51.9739 26.3923 52.1844 25.6423 52.3874C23.6102 55.2403 21.854 57.2933 20.2254 58.641C18.5622 60.0173 17 60.6841 15.3905 60.6841C14.8798 60.6841 14.1785 60.569 13.4871 60.3367C12.7982 60.1052 12.0666 59.74 11.5352 59.2043C11.5351 59.2042 11.535 59.2042 11.535 59.2041L11.8899 58.852L25.6459 27.9345ZM25.6459 27.9345C25.2032 29.2602 25.1969 30.8188 25.4609 32.5669C25.7174 34.2658 26.2359 36.1845 26.9003 38.3043C25.0449 41.9006 22.382 46.6069 20.4685 49.3751L25.6459 27.9345ZM49.4064 48.1944C49.2747 48.2067 49.104 48.2128 48.8863 48.2047C48.3292 48.1841 47.4866 48.0715 46.2378 47.7517C47.6572 47.7916 48.593 47.9404 49.1691 48.1141C49.2586 48.141 49.3374 48.168 49.4064 48.1944ZM30.578 31.019C30.5887 31.6308 30.5418 32.2762 30.4468 32.8529C30.3288 32.1461 30.2612 31.3878 30.2406 30.6956C30.2227 30.0955 30.2407 29.5677 30.2857 29.188C30.3051 29.2323 30.3245 29.2821 30.3436 29.3376C30.4853 29.7488 30.5662 30.3459 30.578 31.019ZM30.0607 28.8859C30.0614 28.8858 30.0629 28.8857 30.0651 28.8859C30.0635 28.8859 30.0619 28.8859 30.0603 28.8859C30.0604 28.8859 30.0605 28.8859 30.0607 28.8859ZM27.5583 48.0645C27.2684 48.1622 26.9828 48.2585 26.7013 48.3525C28.0268 46.2777 29.2012 44.0011 30.1963 41.9102C31.4352 43.5815 32.8894 44.9842 34.4218 46.086C31.9204 46.5934 29.6318 47.3652 27.5583 48.0645ZM41.1482 22.3318H62.7913V65.526C62.7913 66.9324 61.3715 68.2231 59.3837 68.2231H4.67714C2.68932 68.2231 1.26953 66.9324 1.26953 65.526V3.71471C1.26953 2.30824 2.68932 1.01758 4.67714 1.01758H36.7405V18.6347C36.7405 20.7584 38.8213 22.3318 41.1482 22.3318ZM45.8789 1.83705L61.8349 14.892C62.4662 15.4085 62.7913 16.085 62.7913 16.7564V17.069H42.9507V1.01758H43.4276C44.3675 1.01758 45.2453 1.31867 45.8789 1.83705Z" fill="white" stroke="white"/>
</svg>
