<svg width="20" height="19" viewBox="0 0 20 19" fill="none" xmlns="http://www.w3.org/2000/svg">
<path d="M10.1484 0.00341797C5.09123 0.00341797 0.993774 4.22637 0.993774 9.43848C0.993774 14.6506 5.09123 18.8735 10.1484 18.8735C15.2057 18.8735 19.3031 14.6506 19.3031 9.43848C19.3031 4.22637 15.2057 0.00341797 10.1484 0.00341797ZM14.6446 6.4672L13.1422 13.7642C13.0314 14.2816 12.7324 14.4071 12.3153 14.1636L10.0266 12.425L8.9229 13.5207C8.80109 13.6462 8.69773 13.7527 8.46148 13.7527L8.6239 11.3521L12.8653 7.4031C13.0499 7.2357 12.8247 7.14059 12.5811 7.30798L7.33929 10.7092L5.08016 9.98252C4.5892 9.82273 4.57813 9.47653 5.18352 9.23304L14.0097 5.72533C14.4194 5.57315 14.7775 5.82805 14.6446 6.4672Z" fill="#42A678"/>
</svg>
