<svg width="48" height="58" viewBox="0 0 48 58" fill="none" xmlns="http://www.w3.org/2000/svg">
<path d="M23.8706 0.00447327C23.7221 0.0179603 23.5763 0.0530269 23.4386 0.112371L1.32084 9.73719C0.818659 9.96108 0.494675 10.4628 0.500066 11.0131C0.500066 25.8978 1.40185 34.4592 4.81994 40.9869C8.23803 47.5146 14.032 51.6607 23.244 57.7754C23.703 58.0749 24.297 58.0749 24.756 57.7754C33.968 51.6603 39.7622 47.5146 43.1801 40.9869C46.5979 34.4592 47.4999 25.8971 47.4999 11.0131C47.5053 10.4628 47.1813 9.96113 46.6792 9.73988L24.5614 0.115064C24.3454 0.0206531 24.1051 -0.0171128 23.8702 0.00716676L23.8706 0.00447327ZM24.0002 2.87728L44.7141 11.8972C44.6709 26.0478 43.7152 34.0271 40.7398 39.713C37.7889 45.3507 32.6641 49.1728 24.0002 54.9478C15.3362 49.1726 10.2118 45.3506 7.26049 39.713C4.28517 34.0268 3.32941 26.0478 3.28621 11.8972L24.0002 2.87728ZM24.0002 14.5088C23.2361 14.5088 22.6178 15.1265 22.6178 15.8899V35.2252C22.6178 35.9886 23.2361 36.6063 24.0002 36.6063C24.7642 36.6063 25.3825 35.9885 25.3825 35.2252V15.8899C25.3825 15.1265 24.7642 14.5088 24.0002 14.5088ZM24.0002 39.3684C23.2361 39.3684 22.6178 39.9862 22.6178 40.7495C22.6178 41.5129 23.2361 42.1306 24.0002 42.1306C24.7642 42.1306 25.3825 41.5129 25.3825 40.7495C25.3825 39.9862 24.7642 39.3684 24.0002 39.3684Z" fill="#C70000"/>
</svg>
