<svg xmlns="http://www.w3.org/2000/svg" viewBox="367.237 188 59.327 35.56">
  <defs>
    <style>
      .cls-1 {
        fill: #999;
      }
    </style>
  </defs>
  <g id="Show" transform="translate(363 180.511)">
    <path id="Path_2" data-name="Path 2" class="cls-1" d="M61.07,25A34.177,34.177,0,0,0,2.313,23.454a2.062,2.062,0,0,0-.056,2.089A34.016,34.016,0,0,0,32.1,43.049a33.784,33.784,0,0,0,28.91-15.965A2.061,2.061,0,0,0,61.07,25ZM31.664,38.254a12.987,12.987,0,1,1,13.17-12.985A13.079,13.079,0,0,1,31.664,38.254Zm10.06-12.985a10.061,10.061,0,1,1-10.06-9.919,9.99,9.99,0,0,1,10.06,9.919Z" transform="translate(2.237 0)"/>
  </g>
</svg>
