<svg width="20" height="6" viewBox="0 0 20 6" fill="none" xmlns="http://www.w3.org/2000/svg">
<path d="M2.89129 5.50808C1.37038 5.50808 0.137246 4.27489 0.137246 2.75404C0.137246 1.23319 1.37044 -1.86862e-07 2.89129 -1.20383e-07C4.4122 -5.39021e-08 5.64534 1.23319 5.64534 2.75404C5.64534 4.27489 4.41214 5.50808 2.89129 5.50808Z" fill="#A9A9A9"/>
<path d="M10.0686 5.50808C8.54773 5.50808 7.3146 4.27489 7.3146 2.75404C7.3146 1.23319 8.5478 -1.86861e-07 10.0686 -1.20383e-07C11.5895 -5.39046e-08 12.8227 1.23319 12.8227 2.75404C12.8227 4.27489 11.5895 5.50808 10.0686 5.50808Z" fill="#A9A9A9"/>
<path d="M17.246 5.50809C15.725 5.50809 14.4919 4.27489 14.4919 2.75404C14.4919 1.2332 15.7251 -1.86861e-07 17.246 -1.20383e-07C18.7669 -5.39019e-08 20 1.2332 20 2.75404C20 4.27489 18.7668 5.50809 17.246 5.50809Z" fill="#A9A9A9"/>
</svg>
