<svg width="24" height="18" viewBox="0 0 24 18" fill="none" xmlns="http://www.w3.org/2000/svg">
<path d="M11.9999 0C10.133 0 8.25509 0.722774 6.83152 2.16726C5.77276 3.24159 5.13078 4.57443 4.8587 5.96418C2.09609 6.50806 0 8.95665 0 11.9118C0 15.2651 2.6953 18 6 18H18.7826C21.6592 18 24 15.6249 24 12.7059C24 9.95141 21.908 7.70752 19.2553 7.46161C19.2675 5.5456 18.597 3.62552 17.1602 2.16753C15.7377 0.724071 13.8667 0.000264559 11.9999 0.000264559L11.9999 0ZM11.9999 1.58822C13.4703 1.58822 14.9276 2.14349 16.0514 3.28397C17.3507 4.60233 17.9009 6.39318 17.6982 8.10661C17.6707 8.33202 17.7389 8.55949 17.8867 8.73012C18.0355 8.90073 18.2484 8.99895 18.4726 8.99999H18.7824C20.8194 8.99999 22.4346 10.6389 22.4346 12.7058C22.4346 14.7728 20.8194 16.4117 18.7824 16.4117H5.99981C3.5409 16.4117 1.56502 14.4068 1.56502 11.9117C1.56502 9.55629 3.33098 7.63623 5.59233 7.42817C5.95815 7.39198 6.24959 7.10246 6.29342 6.73333C6.4371 5.47495 6.98634 4.25173 7.94015 3.28397C9.06312 2.1445 10.5295 1.58822 11.9998 1.58822H11.9999ZM11.9999 6.35289C11.739 6.35289 11.6014 6.43768 11.47 6.55969L8.60043 9.20673C8.26925 9.519 8.27536 10.0257 8.55151 10.3317C8.82767 10.6378 9.35653 10.6605 9.66021 10.3814L11.2173 8.94203V14.0294C11.2173 14.4678 11.5678 14.8235 11.9999 14.8235C12.4319 14.8235 12.7825 14.4678 12.7825 14.0294V8.94203L14.3396 10.3814C14.6433 10.6605 15.1558 10.6223 15.4483 10.3317C15.757 10.0257 15.7 9.48901 15.3994 9.20673L12.5298 6.55969C12.3749 6.41597 12.2608 6.35289 11.9999 6.35289H11.9999Z" fill="#42A678"/>
</svg>
