<svg xmlns="http://www.w3.org/2000/svg" viewBox="522 172 90 66">
  <defs>
    <style>
      .cls-1 {
        fill: #fff;
      }
    </style>
  </defs>
  <g id="upload-icon" transform="translate(517 155)">
    <g id="Group_1" data-name="Group 1" transform="translate(0 -952.362)">
      <path id="Path_1" data-name="Path 1" class="cls-1" d="M50,969.362a26.757,26.757,0,0,0-26.531,22.375A21.952,21.952,0,0,0,27,1035.362H76a18.961,18.961,0,0,0,.813-37.906A26.733,26.733,0,0,0,50,969.362Zm0,4a22.962,22.962,0,0,1,22.813,25.75,2,2,0,0,0,2,2.25H76a15,15,0,0,1,0,30H27a18.007,18.007,0,0,1-1.656-35.937,2,2,0,0,0,1.812-1.75A22.929,22.929,0,0,1,50,973.362Zm0,20a2.172,2.172,0,0,0-1.344.5l-11,10a2.055,2.055,0,0,0-.156,2.844,2.092,2.092,0,0,0,2.844.125L48,999.862v21.5a2,2,0,0,0,4,0v-21.5l7.656,6.969a2.131,2.131,0,0,0,2.844-.125,2.031,2.031,0,0,0-.156-2.844l-11-10A1.746,1.746,0,0,0,50,993.362Z"/>
    </g>
  </g>
</svg>
