<svg width="14" height="18" viewBox="0 0 14 18" fill="none" xmlns="http://www.w3.org/2000/svg">
<path d="M14 4.24443C14 4.0841 13.9376 3.92377 13.8137 3.80412L10.308 0.200217C10.1833 0.0602212 9.99692 0 9.81059 0H1.09943C0.498278 0 0 0.4802 0 1.06131V16.9387C0 17.519 0.497449 18 1.09943 18H12.9006C13.5017 18 14 17.5198 14 16.9387L14 4.24443ZM12.9006 17.1983H1.09944C0.954415 17.1983 0.829642 17.0778 0.829642 16.9378V1.04101C0.829642 0.901011 0.954411 0.780565 1.09944 0.780565H9.66562L9.66481 3.18316C9.66481 3.8237 10.2044 4.34458 10.8679 4.34458H13.1706V16.9378C13.1706 17.0778 13.0458 17.1983 12.9008 17.1983H12.9006Z" fill="#6671AB"/>
<path d="M3.54621 11.7533H2.6955C2.57073 11.7533 2.50916 11.8135 2.50916 11.9332V13.9956C2.50916 14.1161 2.57154 14.1755 2.6955 14.1755H2.92398C3.04875 14.1755 3.11032 14.1153 3.11032 13.9956V13.4348H3.54621C4.04366 13.4348 4.37585 13.0743 4.37585 12.5941C4.37585 12.1139 4.02342 11.7533 3.54621 11.7533L3.54621 11.7533ZM3.42225 12.9147H3.11113V12.2538H3.42225C3.62965 12.2538 3.73336 12.3938 3.73336 12.5745C3.73336 12.7544 3.62965 12.9147 3.42225 12.9147Z" fill="#6671AB"/>
<path d="M6.0772 11.892C6.03588 11.7919 5.9735 11.7317 5.84872 11.7317H5.53761C5.4339 11.7317 5.35126 11.7716 5.30913 11.892L4.5832 13.9545C4.54188 14.0749 4.60426 14.175 4.74929 14.175H4.97777C5.08147 14.175 5.16411 14.1148 5.18518 14.0147L5.28888 13.6541H6.0772L6.1809 14.0147C6.22222 14.1148 6.28461 14.175 6.40938 14.175H6.63787C6.78289 14.175 6.84527 14.0952 6.80395 13.9545L6.0772 11.892ZM5.45498 13.1934L5.6 12.7132C5.64132 12.5529 5.70371 12.2925 5.70371 12.2925C5.70371 12.2925 5.76609 12.5529 5.80741 12.7132L5.95243 13.1934H5.45498Z" fill="#6671AB"/>
<path d="M8.89735 13.3333C8.83497 13.2332 8.79365 13.1933 8.79365 13.1933C9.04237 13.0729 9.16715 12.7929 9.16715 12.5325C9.16715 12.1719 8.9808 11.9318 8.71101 11.8317C8.60731 11.7918 8.48253 11.7715 8.21356 11.7715H7.52895C7.40418 11.7715 7.34261 11.8317 7.34261 11.9514L7.3418 13.9942C7.3418 14.1146 7.40418 14.1741 7.52814 14.1741H7.75662C7.88139 14.1741 7.94297 14.1138 7.94297 13.9942V13.3536H8.23301L8.60651 14.0341C8.66889 14.1342 8.73128 14.1741 8.83499 14.1741H9.10479C9.24981 14.1741 9.31219 14.0739 9.22955 13.9535L8.89735 13.3333ZM8.23381 12.8531H7.96401V12.2525H8.17142C8.27512 12.2525 8.33751 12.2728 8.3999 12.2924C8.52467 12.3323 8.54493 12.4324 8.54493 12.5528C8.54493 12.753 8.42016 12.8531 8.23381 12.8531L8.23381 12.8531Z" fill="#6671AB"/>
<path d="M11.5309 11.7533H9.76789C9.64312 11.7533 9.58154 11.8135 9.58154 11.9332V12.0732C9.58154 12.1936 9.64393 12.2531 9.76789 12.2531H10.3488V13.9956C10.3488 14.116 10.4112 14.1754 10.5351 14.1754H10.7636C10.8884 14.1754 10.95 14.1152 10.95 13.9956V12.2538H11.5309C11.6556 12.2538 11.7172 12.1936 11.7172 12.074V11.934C11.718 11.8135 11.6556 11.7533 11.5309 11.7533H11.5309Z" fill="#6671AB"/>
</svg>
