<svg width="28" height="23" viewBox="0 0 28 23" fill="none" xmlns="http://www.w3.org/2000/svg">
<path d="M26.32 17.4948H25.2V1.93858C25.2 1.48099 24.8226 1.10776 24.36 1.10776H3.64C3.17736 1.10776 2.8 1.48099 2.8 1.93858V17.4948H1.68V1.93858C1.68 0.869756 2.55937 0 3.64 0H24.36C25.4406 0 26.32 0.869756 26.32 1.93858V17.4948ZM23.52 16.8933H28V18.0011H23.52V16.8933ZM0 16.8933H19.88V18.0011H0V16.8933ZM17.1063 9.88538L25.7995 22.1128L24.8829 22.75L16.1898 10.5226L17.1063 9.88538ZM7 7.47731H21V8.58507H7V7.47731ZM7 4.70792H21V5.81567H7V4.70792ZM7 10.2467H12.88V11.3545H7V10.2467Z" fill="#42A678"/>
</svg>
