<svg id="Layer_1" data-name="Layer 1" xmlns="http://www.w3.org/2000/svg" viewBox="0 0 458.84 154.82"><defs><style>.cls-1{fill:#0065f2;}</style></defs><title>Pulse_logo</title><path class="cls-1" d="M195.14,128.14a63.09,63.09,0,0,0-28.54-5.73H117.51V270.16l20.5,0V209.83H166.5A63.3,63.3,0,0,0,195.37,204a38.61,38.61,0,0,0,16.83-15.84,48,48,0,0,0-.13-44.29A38.59,38.59,0,0,0,195.14,128.14ZM189.86,185a32.43,32.43,0,0,1-23.68,7H138.05V140.06h28.29a32.13,32.13,0,0,1,23.35,6.82,26.14,26.14,0,0,1,6.89,19.35A25.64,25.64,0,0,1,189.86,185Z" transform="translate(-117.51 -118.28)"/><rect class="cls-1" x="224.25" width="20.54" height="151.87"/><path class="cls-1" d="M457.15,221.11a35.77,35.77,0,0,0-14.68-9.29,156.71,156.71,0,0,0-18.3-5.12,68.07,68.07,0,0,1-17.32-5.9,9.11,9.11,0,0,1-5.54-8.27,10.84,10.84,0,0,1,4.36-9,21.73,21.73,0,0,1,13.53-3.65,22.64,22.64,0,0,1,14.11,4.1,16.39,16.39,0,0,1,6.11,11.19l.14,1.44h20.3l-.12-1.7A34.3,34.3,0,0,0,447,170.53a43.84,43.84,0,0,0-27.6-8.47A41.64,41.64,0,0,0,391.16,171a29,29,0,0,0-10.6,23.15,22.18,22.18,0,0,0,6,16.17A39.42,39.42,0,0,0,401,219.45a106.75,106.75,0,0,0,16.79,4.83,87.69,87.69,0,0,1,18.47,5.43,10.78,10.78,0,0,1,5.82,11,12.65,12.65,0,0,1-4.52,9.76,22.21,22.21,0,0,1-15.24,4.34,26.29,26.29,0,0,1-17.59-5.54,22.88,22.88,0,0,1-8-13l-.27-1.27H375.64l.18,1.77A37.9,37.9,0,0,0,390.72,263a50.84,50.84,0,0,0,31.49,9.61c.8,0,1.59.06,2.38.06a45,45,0,0,0,27.47-9.39,29.64,29.64,0,0,0,11-23.95A25.69,25.69,0,0,0,457.15,221.11Z" transform="translate(-117.51 -118.28)"/><path class="cls-1" d="M573.07,249.76a11.74,11.74,0,0,0-8-3.3,11.12,11.12,0,0,0-8.28,3.28,11.55,11.55,0,0,0,0,16.15,11.32,11.32,0,0,0,8,3.3H565a11.42,11.42,0,0,0,8.08-19.43Z" transform="translate(-117.51 -118.28)"/><path class="cls-1" d="M302.42,225.41a26.71,26.71,0,1,1-53.41,0V194.7H228v30.72a47.7,47.7,0,0,0,95.39,0V164h-21Z" transform="translate(-117.51 -118.28)"/><path class="cls-1" d="M511.3,251.05A30.77,30.77,0,0,1,499.73,240a38.61,38.61,0,0,1-5.18-17.11h81.5v-1.59c0-1.9,0-3.6.1-5.1s.1-3.07.1-4.6a51.4,51.4,0,0,0-6-24.29A47.28,47.28,0,0,0,553.05,169a49.51,49.51,0,0,0-26.49-6.93A53.47,53.47,0,0,0,499.19,169a47.93,47.93,0,0,0-18.51,19.44,61.16,61.16,0,0,0-6.56,28.87,60.19,60.19,0,0,0,6.69,29.08,49.17,49.17,0,0,0,18.5,19.32,51.64,51.64,0,0,0,25.81,6.92h2.1V254.78l-1.58,0A31.09,31.09,0,0,1,511.3,251.05Zm-16.51-44.82a28.79,28.79,0,0,1,10.32-19.14,33.14,33.14,0,0,1,20.65-7.19h.38a30.25,30.25,0,0,1,20.77,7.42,27.85,27.85,0,0,1,8.94,18.91Z" transform="translate(-117.51 -118.28)"/></svg>